<?xml version="1.0"?>
<svg xmlns="http://www.w3.org/2000/svg" xmlns:xlink="http://www.w3.org/1999/xlink" xmlns:svgjs="http://svgjs.com/svgjs" version="1.1" width="512" height="512" x="0" y="0" viewBox="0 0 512 512" style="enable-background:new 0 0 512 512" xml:space="preserve"><circle r="256" cx="256" cy="256" fill="#c0c3a0" shape="circle"/><g transform="matrix(0.7,0,0,0.7,76.80015563964844,76.79999542236328)"><g xmlns="http://www.w3.org/2000/svg"><g><path d="m286.937 447.071c9.544 2.042 18.745-6.62 27.504-2.824 28.613 12.4 52.51 33.631 68.26 60.254h-253.401c15.428-26.079 38.674-46.984 66.512-59.483 9.28-4.166 19.07 4.232 29.251 2.053z" fill="#365e7d" data-original="#365e7d" style=""/><path d="m225.34 447.07c-12.31 12.67-22.59 32.73-29.53 57.43h-66.51c15.43-26.08 38.68-46.98 66.51-59.48 9.28-4.17 19.07 4.23 29.26 2.05z" fill="#2b4d66" data-original="#2b4d66" style=""/><path d="m314.438 444.25c-15.4 14.14-35.92 22.77-58.47 22.77-2.92 0-5.8-.14-8.64-.43-19.12-1.89-36.41-10.02-49.81-22.32 8.77-3.81 17.98-6.78 27.54-8.83v-53.62h61.88v53.62c9.54 2.04 18.74 5.01 27.5 8.81z" fill="#ffddce" data-original="#ffddce" style=""/><path d="m247.328 381.825v-.005h-22.27v.005h-.001l.001 53.615c-9.56 2.05-18.77 5.02-27.54 8.83 13.4 12.3 30.69 20.43 49.81 22.32v-60.415h17.909c7.43 0 14.69-.75 21.7-2.17v-22.18z" fill="#ffcbbe" data-original="#ffcbbe" style=""/><path d="m102.865 284.283v96.402c0 12.141 9.843 21.984 21.984 21.984 8.614 0 16.067-4.958 19.673-12.173 3.606 7.215 11.058 12.173 19.673 12.173 12.141 0 21.984-9.842 21.984-21.984v-96.402z" fill="#2b4d66" data-original="#2b4d66" style=""/><path d="m325.823 284.283v96.402c0 12.141 9.843 21.984 21.984 21.984 8.614 0 16.067-4.958 19.673-12.173 3.606 7.215 11.058 12.173 19.673 12.173 12.141 0 21.984-9.842 21.984-21.984v-96.402z" fill="#365e7d" data-original="#365e7d" style=""/><path d="m256.001 7.5c-84.574 0-153.135 68.561-153.135 153.135v123.648h306.27v-123.648c0-84.574-68.561-153.135-153.135-153.135z" fill="#365e7d" data-original="#365e7d" style=""/><path d="m256.005 7.51c0 24.247-7.399 47.854-20.898 67.996-16.314 24.343-25.832 53.626-25.832 85.124v123.66h-106.41v-123.66c0-84.56 68.56-153.12 153.14-153.12z" fill="#2b4d66" data-original="#2b4d66" style=""/><g fill="#ffcbbe"><circle cx="118.481" cy="272.386" r="39.614" fill="#ffcbbe" data-original="#ffcbbe" style=""/><circle cx="393.526" cy="272.386" r="39.614" fill="#ffcbbe" data-original="#ffcbbe" style=""/></g><path d="m373.695 210.56v65c0 50.62-34.69 93.14-81.59 105.09-8.59 2.19-17.59 3.35-26.86 3.35h-18.48c-59.89 0-108.45-48.55-108.45-108.44v-65c28.79-14.6 53.22-33.3 72.23-50.57 29.05-26.39 45.46-49.45 45.46-49.45s44.91 63.11 117.69 100.02z" fill="#ffddce" data-original="#ffddce" style=""/><path d="m292.105 380.65c-8.59 2.19-17.59 3.35-26.86 3.35h-18.48c-59.89 0-108.45-48.55-108.45-108.44v-65c28.79-14.6 53.22-33.3 72.23-50.57v115.57c0 50.61 34.68 93.12 81.56 105.09z" fill="#ffcbbe" data-original="#ffcbbe" style=""/><path d="m271.701 345.443c-8.669-8.669-22.723-8.669-31.391 0-8.669 8.669-8.669 22.723 0 31.391l15.696 15.696 15.696-15.696c8.668-8.668 8.668-22.722-.001-31.391z" fill="#365e7d" data-original="#365e7d" style=""/></g><g><path d="m440.635 272.382c0-17.583-9.688-32.936-24-41.03v-70.722c0-88.572-72.058-160.63-160.639-160.63-88.572 0-160.63 72.058-160.63 160.63v70.722c-14.312 8.094-24 23.448-24 41.03s9.688 32.936 24 41.03v67.277c0 16.255 13.225 29.48 29.48 29.48 7.432 0 14.371-2.734 19.676-7.496 5.301 4.762 12.239 7.496 19.674 7.496 7.872 0 15.274-3.067 20.837-8.63 5.574-5.56 8.643-12.965 8.643-20.85v-2.075c7.523 3.89 15.523 6.982 23.888 9.159v41.727c-39.506 10.123-73.789 35.804-94.718 71.182-1.372 2.318-1.395 5.194-.06 7.534s3.82 3.784 6.514 3.784h253.4c2.694 0 5.181-1.445 6.515-3.785s1.312-5.216-.06-7.534c-20.929-35.377-55.212-61.059-94.718-71.182v-41.724c8.364-2.177 16.363-5.268 23.885-9.157v2.071c0 16.255 13.225 29.48 29.48 29.48 7.436 0 14.374-2.733 19.674-7.496 5.305 4.762 12.244 7.496 19.676 7.496 7.872 0 15.274-3.067 20.837-8.63 5.574-5.56 8.643-12.964 8.643-20.85v-12.47c0-4.142-3.358-7.5-7.5-7.5s-7.5 3.358-7.5 7.5v12.47c0 3.872-1.504 7.505-4.243 10.237-2.736 2.736-6.372 4.243-10.237 4.243-5.523 0-10.494-3.076-12.973-8.028-1.271-2.539-3.867-4.142-6.707-4.142-.001 0-.003 0-.004 0-2.841.001-5.437 1.608-6.706 4.149-2.47 4.947-7.437 8.021-12.96 8.021-7.984 0-14.48-6.496-14.48-14.48v-11.34c18.474-13.445 32.846-32.2 40.838-54.01 6.037 2.731 12.591 4.155 19.362 4.155 2.766 0 5.473-.253 8.11-.713v19.438c0 4.142 3.358 7.5 7.5 7.5s7.5-3.358 7.5-7.5v-24.806c14.314-8.093 24.003-23.447 24.003-41.031zm-39-111.752v65.353c-2.638-.46-5.346-.714-8.113-.714-4.18 0-8.327.561-12.33 1.644v-16.353c0-2.825-1.588-5.411-4.108-6.689-63.278-32.092-105.555-85.219-113.579-95.808v-92.872c76.83 3.916 138.13 67.653 138.13 145.439zm-283.156 79.639c4.248 0 8.445.842 12.334 2.456v16.767c-3.001-1.222-6.314-2.034-9.919-2.396-7.456-.749-13.557.674-14.228.839-4.023.987-6.483 5.048-5.496 9.071.987 4.022 5.047 6.482 9.071 5.496.041-.01 4.273-.97 9.153-.482 5.254.528 9.015 2.414 11.446 5.744.148 7.869 1.084 15.547 2.731 22.961-4.614 2.47-9.749 3.77-15.093 3.77-17.708 0-32.114-14.406-32.114-32.113s14.407-32.113 32.115-32.113zm60.196 140.421c0 3.872-1.504 7.505-4.243 10.237-2.736 2.736-6.372 4.243-10.237 4.243-5.524 0-10.49-3.073-12.96-8.021-1.269-2.542-3.865-4.148-6.706-4.149-.001 0-.002 0-.004 0-2.839 0-5.435 1.604-6.707 4.142-2.479 4.952-7.45 8.028-12.974 8.028-7.984 0-14.48-6.496-14.48-14.48v-61.908c2.638.46 5.346.714 8.113.714 6.78 0 13.335-1.424 19.367-4.154 7.991 21.806 22.36 40.559 40.83 54.003v11.345zm87.723-9.159-10.393 10.393-10.393-10.393c-5.73-5.73-5.73-15.054 0-20.785 2.776-2.776 6.467-4.305 10.393-4.305s7.617 1.529 10.393 4.305c5.73 5.731 5.73 15.055 0 20.785zm102.386 125.469h-225.567c13.807-18.884 32.114-33.969 53.038-43.906 16.795 13.846 37.803 21.426 59.713 21.426 21.911 0 42.927-7.588 59.734-21.447 20.942 9.937 39.265 25.03 53.082 43.927zm-83.416-54.226c4.729 1.012 9.38 2.278 13.944 3.769-12.797 8.421-27.799 12.977-43.343 12.977-15.542 0-30.538-4.551-43.326-12.962 4.579-1.498 9.246-2.769 13.991-3.784 3.459-.74 5.931-3.797 5.931-7.334v-44.81c3.87.475 7.798.758 11.775.84l6.364 6.364c1.464 1.464 3.384 2.197 5.303 2.197s3.839-.732 5.303-2.197l6.364-6.364c3.973-.082 7.898-.365 11.764-.839v44.81c-.001 3.536 2.471 6.593 5.93 7.333zm-3.116-67.714c2.254-4.236 3.451-8.986 3.451-13.92 0-7.933-3.089-15.39-8.698-20.999s-13.066-8.699-20.999-8.699-15.39 3.089-20.999 8.699c-5.609 5.609-8.698 13.066-8.698 20.999 0 4.935 1.197 9.685 3.451 13.922-47.596-8.106-83.947-49.635-83.947-99.501v-60.438c13.692-7.229 27.291-15.81 40.484-25.548 3.333-2.46 4.04-7.156 1.58-10.488-2.461-3.333-7.156-4.04-10.488-1.58-13.844 10.219-28.133 19.089-42.47 26.366-2.519 1.278-4.105 3.863-4.105 6.688v16.353c-4.003-1.083-8.152-1.644-12.334-1.644-2.768 0-5.475.253-8.113.714v-65.354c0-77.786 61.302-141.523 138.14-145.439v92.869c-4.83 6.387-22.058 28.211-48.662 51.408-3.122 2.722-3.446 7.46-.724 10.582 2.722 3.123 7.46 3.446 10.582.724 22.403-19.535 38.222-37.849 46.291-47.907 14.414 18.026 53.455 62.34 110.2 92.258v60.436c-.002 49.862-36.35 91.39-83.942 99.499zm111.27-70.564c-5.334 0-10.467-1.3-15.089-3.771 1.648-7.414 2.583-15.093 2.731-22.961 2.375-3.251 6.02-5.124 11.091-5.704 5.009-.573 9.393.417 9.542.451 4.011.964 8.055-1.491 9.041-5.504.987-4.023-1.473-8.084-5.496-9.071-.672-.165-6.774-1.587-14.228-.839-3.606.362-6.919 1.174-9.921 2.397v-16.766c3.889-1.615 8.084-2.458 12.33-2.458 17.708 0 32.113 14.406 32.113 32.113s-14.407 32.113-32.114 32.113z" fill="#000000" data-original="#000000" style=""/><path d="m200.108 232.62c-7.236 0-13.123 8.065-13.123 17.979s5.887 17.979 13.123 17.979 13.123-8.065 13.123-17.979-5.887-17.979-13.123-17.979z" fill="#000000" data-original="#000000" style=""/><path d="m311.899 232.62c-7.236 0-13.123 8.065-13.123 17.979s5.887 17.979 13.123 17.979 13.123-8.065 13.123-17.979-5.887-17.979-13.123-17.979z" fill="#000000" data-original="#000000" style=""/><path d="m179.485 206.633c-2.929 2.929-2.929 7.678 0 10.606 2.929 2.929 7.678 2.929 10.606 0 5.951-5.95 15.633-5.95 21.584 0 1.464 1.464 3.384 2.197 5.303 2.197s3.839-.732 5.303-2.197c2.929-2.929 2.929-7.678 0-10.606-11.798-11.8-30.997-11.8-42.796 0z" fill="#000000" data-original="#000000" style=""/><path d="m290.856 206.633c-2.929 2.929-2.929 7.678 0 10.606 2.929 2.929 7.678 2.929 10.606 0 5.951-5.95 15.633-5.95 21.584 0 1.464 1.464 3.384 2.197 5.303 2.197s3.839-.732 5.303-2.197c2.929-2.929 2.929-7.678 0-10.606-11.798-11.8-30.997-11.8-42.796 0z" fill="#000000" data-original="#000000" style=""/><path d="m281.189 271.389c-3.97-1.178-8.146 1.084-9.325 5.055-2.063 6.948-8.585 11.801-15.861 11.801-7.267 0-13.79-4.856-15.863-11.81-1.184-3.969-5.361-6.228-9.331-5.044s-6.228 5.361-5.044 9.331c3.954 13.261 16.388 22.523 30.238 22.523 13.866 0 26.302-9.266 30.241-22.532 1.179-3.97-1.084-8.145-5.055-9.324z" fill="#000000" data-original="#000000" style=""/></g></g></g></svg>
