<?xml version="1.0"?>
<svg xmlns="http://www.w3.org/2000/svg" xmlns:xlink="http://www.w3.org/1999/xlink" xmlns:svgjs="http://svgjs.com/svgjs" version="1.1" width="512" height="512" x="0" y="0" viewBox="0 0 512 512" style="enable-background:new 0 0 512 512" xml:space="preserve" class=""><circle r="256" cx="256" cy="256" fill="#cee9fd" shape="circle"/><g transform="matrix(0.7,0,0,0.7,76.79988098144531,76.79954681396487)"><g xmlns="http://www.w3.org/2000/svg"><g><path d="m195.344 265.531h121.312v213.989h-121.312z" fill="#2b4d66" data-original="#2b4d66" style=""/><path d="m307.115 58.62v51.11h-102.23v-51.11c0-28.23 22.88-51.12 51.11-51.12 28.24 0 51.12 22.89 51.12 51.12z" fill="#365e7d" data-original="#365e7d" style=""/><path d="m307.115 60.05v49.68h-102.23v-49.68c15.85-6.14 33.09-9.51 51.11-9.51h.01c18.02 0 35.25 3.37 51.11 9.51z" fill="#2b4d66" data-original="#2b4d66" style=""/><path d="m277.28 12.13c-17.61 8.08-29.83 25.86-29.83 46.49v51.11h-42.57v-51.11c0-28.23 22.89-51.12 51.12-51.12 7.59 0 14.8 1.66 21.28 4.63z" fill="#2b4d66" data-original="#2b4d66" style=""/><path d="m256 69.829c-78.238 0-141.663 63.424-141.663 141.662v77.088h283.325v-77.088c.001-78.237-63.424-141.662-141.662-141.662z" fill="#365e7d" data-original="#365e7d" style=""/><path d="m297.028 75.861c-58.24 17.59-100.64 71.65-100.64 135.63v77.09h-82.05v-77.09c0-78.24 63.43-141.66 141.66-141.66 14.27.001 28.04 2.11 41.03 6.03z" fill="#2b4d66" data-original="#2b4d66" style=""/><path d="m382.7 504.5h-253.4c20.571-34.772 55.039-60.346 95.763-69.06v-53.616h61.874v53.616c40.724 8.714 75.192 34.288 95.763 69.06z" fill="#aa7a63" data-original="#aa7a63" style=""/><path d="m242.93 381.82v53.62c-17.21 8.71-31.77 34.29-40.46 69.06h-73.17c20.57-34.77 55.04-60.35 95.76-69.06v-53.62z" fill="#986b54" data-original="#986b54" style=""/><g fill="#986b54"><circle cx="118.481" cy="272.386" r="39.614" fill="#986b54" data-original="#986b54" style=""/><circle cx="393.526" cy="272.386" r="39.614" fill="#986b54" data-original="#986b54" style=""/></g><path d="m373.685 235.97v39.59c0 51.9-36.46 95.29-85.17 105.93-7.49 1.65-15.28 2.51-23.27 2.51h-18.48c-59.9 0-108.45-48.55-108.45-108.45v-39.58c0-39.87 27.77-73.26 65.02-81.89 6.12-1.41 12.49-2.16 19.04-2.16h67.25c46.43 0 84.06 37.63 84.06 84.05z" fill="#aa7a63" data-original="#aa7a63" style=""/><path d="m288.515 381.49c-7.49 1.65-15.28 2.51-23.27 2.51h-18.48c-59.9 0-108.45-48.55-108.45-108.45v-39.58c0-39.87 27.77-73.26 65.02-81.89v121.48c0 51.9 36.47 95.29 85.18 105.93z" fill="#986b54" data-original="#986b54" style=""/><g><g><circle cx="106.725" cy="310.797" fill="#ffd064" r="15.369" data-original="#ffd064" style=""/><path d="m112.046 325.217c-1.66.62-3.45.95-5.32.95-8.49 0-15.37-6.88-15.37-15.37 0-8.48 6.88-15.36 15.37-15.36 1.87 0 3.66.33 5.32.95-5.87 2.16-10.05 7.8-10.05 14.41 0 6.62 4.18 12.26 10.05 14.42z" fill="#ffc250" data-original="#ffc250" style=""/></g><g><circle cx="405.275" cy="310.797" fill="#ffd064" r="15.369" data-original="#ffd064" style=""/><path d="m410.596 325.217c-1.66.62-3.45.95-5.32.95-8.49 0-15.37-6.88-15.37-15.37 0-8.48 6.88-15.36 15.37-15.36 1.87 0 3.66.33 5.32.95-5.87 2.16-10.05 7.8-10.05 14.41 0 6.62 4.18 12.26 10.05 14.42z" fill="#ffc250" data-original="#ffc250" style=""/></g></g><g><path d="m223.411 471.911c-17.998 0-32.589 14.591-32.589 32.589h65.178c0-17.998-14.591-32.589-32.589-32.589z" fill="#ffd064" data-original="#ffd064" style=""/><path d="m235.052 474.05c-12.25 4.69-20.95 16.55-20.95 30.45h-23.28c0-18 14.59-32.59 32.59-32.59 4.1 0 8.03.76 11.64 2.14z" fill="#ffc250" data-original="#ffc250" style=""/><path d="m288.589 471.911c-17.998 0-32.589 14.591-32.589 32.589h65.178c0-17.998-14.591-32.589-32.589-32.589z" fill="#ffd064" data-original="#ffd064" style=""/><path d="m300.23 474.05c-12.25 4.69-20.95 16.55-20.95 30.45h-23.28c0-18 14.59-32.59 32.59-32.59 4.1 0 8.03.76 11.64 2.14z" fill="#ffc250" data-original="#ffc250" style=""/></g></g><g><path d="m440.635 272.38c0-21.961-15.106-40.458-35.473-45.652v-15.238c0-42.555-18.256-83.197-50.086-111.505-3.098-2.752-7.836-2.475-10.589.621s-2.475 7.835.62 10.588c28.633 25.463 45.055 62.02 45.055 100.296v13.908c-3.193.229-6.346.788-9.414 1.651-4.502-46.313-43.649-82.634-91.124-82.634h-67.251c-47.475 0-86.622 36.321-91.124 82.634-3.071-.863-6.225-1.423-9.418-1.651v-13.908c0-73.976 60.184-134.16 134.17-134.16 23.208 0 46.063 6.014 66.096 17.392 3.603 2.046 8.179.784 10.226-2.817 2.046-3.602.784-8.18-2.817-10.226-4.824-2.74-9.802-5.183-14.892-7.356v-15.703c0-32.323-26.297-58.62-58.619-58.62-32.317 0-58.61 26.297-58.61 58.62v15.714c-53.195 22.818-90.553 75.704-90.553 137.156v15.238c-20.364 5.196-35.468 23.692-35.468 45.651 0 12.329 4.76 23.973 13.211 32.715-.47 1.823-.72 3.734-.72 5.702 0 12.61 10.259 22.869 22.869 22.869 9.927 0 18.393-6.359 21.548-15.216 3.297-.697 6.505-1.74 9.571-3.125 9.268 25.3 27.118 46.493 50.001 60.051v65.084c-7.32 3.604-14.374 7.804-21.129 12.59-3.38 2.394-4.179 7.075-1.784 10.455 1.462 2.064 3.776 3.165 6.127 3.165 1.498 0 3.013-.448 4.329-1.381 15.501-10.981 32.742-18.557 51.243-22.516 3.459-.74 5.931-3.796 5.931-7.334v-44.811c4.656.571 9.395.871 14.203.871h18.48c4.802 0 9.536-.299 14.187-.869v44.809c0 3.538 2.472 6.594 5.932 7.334 33.489 7.162 63.246 26.645 83.413 54.226h-40.812c-3.523-18.531-19.833-32.589-39.375-32.589-13.418 0-25.309 6.633-32.59 16.785-7.281-10.152-19.171-16.785-32.589-16.785-19.542 0-35.852 14.058-39.375 32.589h-40.821c3.397-4.645 7.086-9.09 11.035-13.296 2.836-3.02 2.687-7.766-.333-10.602s-7.767-2.686-10.601.333c-7.811 8.316-14.7 17.483-20.478 27.244-1.372 2.318-1.396 5.195-.062 7.535 1.335 2.34 3.821 3.785 6.516 3.785h253.4c2.693 0 5.181-1.445 6.515-3.785 1.335-2.34 1.312-5.216-.06-7.534-15.468-26.146-38.229-46.985-64.993-60.17v-65.13c22.887-13.558 40.738-34.754 50.005-60.058 3.067 1.385 6.274 2.428 9.567 3.126 3.155 8.857 11.621 15.217 21.548 15.217 12.61 0 22.869-10.259 22.869-22.869 0-1.968-.25-3.878-.719-5.702 8.452-8.738 13.212-20.383 13.212-32.712zm-228.25-213.76c0-24.052 19.563-43.62 43.61-43.62 24.052 0 43.619 19.568 43.619 43.62v10.225c-14.064-4.289-28.776-6.515-43.622-6.515-15.166 0-29.808 2.282-43.607 6.509zm-12.919 438.38c3.196-10.182 12.722-17.589 23.944-17.589s20.748 7.407 23.944 17.589zm65.178 0c3.196-10.182 12.723-17.589 23.945-17.589s20.748 7.407 23.944 17.589zm-157.919-178.334c-4.339 0-7.869-3.53-7.869-7.869s3.53-7.869 7.869-7.869 7.869 3.53 7.869 7.869-3.53 7.869-7.869 7.869zm21.493-15.685c-3.2-8.772-11.626-15.053-21.492-15.053-5.018 0-9.66 1.628-13.435 4.379-4.455-5.619-6.925-12.596-6.925-19.927 0-17.706 14.404-32.11 32.11-32.11 4.245 0 8.443.842 12.34 2.458v16.766c-3.002-1.223-6.316-2.035-9.922-2.397-7.459-.747-13.557.675-14.228.839-4.023.987-6.484 5.048-5.497 9.071.986 4.022 5.052 6.482 9.071 5.496.041-.01 4.271-.972 9.154-.482 5.256.528 9.017 2.416 11.449 5.748.148 7.865 1.084 15.539 2.731 22.95-1.716.917-3.508 1.675-5.356 2.262zm89.344 126.516c-4.998 1.276-9.904 2.803-14.717 4.562v-51.206c4.757 1.955 9.669 3.606 14.717 4.92zm91.593 4.579c-4.813-1.766-9.726-3.297-14.723-4.577v-41.722c5.05-1.314 9.964-2.966 14.723-4.921zm-43.909-57.576h-18.48c-55.664 0-100.95-45.286-100.95-100.95v-39.575c0-42.215 34.345-76.56 76.56-76.56h67.251c42.215 0 76.56 34.344 76.56 76.56v39.585c-.002 55.659-45.283 100.94-100.941 100.94zm115.911-98.725c2.375-3.258 6.022-5.135 11.098-5.716 5.019-.572 9.403.419 9.542.451 4.012.965 8.057-1.492 9.041-5.504.987-4.023-1.474-8.084-5.497-9.071-.67-.165-6.771-1.584-14.228-.839-3.609.363-6.925 1.176-9.929 2.4v-16.767c3.893-1.616 8.091-2.459 12.34-2.459 17.706 0 32.11 14.404 32.11 32.11 0 7.332-2.47 14.309-6.925 19.927-3.775-2.75-8.417-4.379-13.436-4.379-9.865 0-18.29 6.279-21.491 15.05-1.846-.588-3.638-1.345-5.355-2.262 1.647-7.408 2.582-15.079 2.73-22.941zm24.118 40.891c-4.339 0-7.869-3.53-7.869-7.869s3.53-7.869 7.869-7.869 7.869 3.53 7.869 7.869-3.53 7.869-7.869 7.869z" fill="#000000" data-original="#000000" style=""/><path d="m200.108 237.62c-2.838 0-5.462 1.254-7.611 3.36l-4.959-3.528c-3.377-2.403-8.059-1.61-10.459 1.764-2.401 3.375-1.611 8.058 1.764 10.459l8.147 5.796c0 .043-.005.085-.005.128 0 9.914 5.887 17.979 13.123 17.979s13.123-8.065 13.123-17.979-5.887-17.979-13.123-17.979z" fill="#000000" data-original="#000000" style=""/><path d="m324.469 237.452-4.959 3.528c-2.149-2.106-4.772-3.36-7.611-3.36-7.236 0-13.123 8.065-13.123 17.979s5.887 17.979 13.123 17.979 13.123-8.065 13.123-17.979c0-.043-.004-.085-.005-.128l8.147-5.796c3.375-2.401 4.165-7.083 1.764-10.459-2.399-3.375-7.083-4.166-10.459-1.764z" fill="#000000" data-original="#000000" style=""/><path d="m200.883 197.77c-8.083 0-15.683 3.148-21.398 8.864-2.929 2.929-2.929 7.678.001 10.606 2.928 2.93 7.677 2.929 10.606 0 2.882-2.883 6.715-4.47 10.791-4.47s7.909 1.587 10.791 4.47c1.465 1.465 3.384 2.197 5.304 2.197 1.919 0 3.839-.732 5.303-2.197 2.93-2.929 2.93-7.677.001-10.606-5.716-5.717-13.316-8.864-21.399-8.864z" fill="#000000" data-original="#000000" style=""/><path d="m312.254 212.77c4.076 0 7.909 1.587 10.791 4.47 1.465 1.465 3.384 2.197 5.304 2.197 1.919 0 3.839-.732 5.303-2.197 2.93-2.929 2.93-7.677.001-10.606-5.716-5.716-13.315-8.864-21.398-8.864s-15.683 3.148-21.398 8.864c-2.93 2.929-2.93 7.677-.001 10.606s7.678 2.929 10.606 0c2.883-2.883 6.715-4.47 10.792-4.47z" fill="#000000" data-original="#000000" style=""/><path d="m281.189 281.39c-3.968-1.178-8.146 1.084-9.324 5.055-2.063 6.948-8.586 11.801-15.861 11.801-7.267 0-13.79-4.856-15.863-11.809-1.184-3.969-5.359-6.231-9.331-5.044-3.969 1.184-6.228 5.361-5.044 9.33 3.955 13.261 16.389 22.523 30.238 22.523 13.866 0 26.302-9.265 30.24-22.531 1.179-3.971-1.084-8.146-5.055-9.325z" fill="#000000" data-original="#000000" style=""/></g></g></g></svg>
